<?xml version="1.0" encoding="UTF-8" standalone="no"?>
<!-- Created with Inkscape (http://www.inkscape.org/) -->

<svg
   width="57.111931mm"
   height="57.111759mm"
   viewBox="0 0 57.11193 57.111758"
   version="1.1"
   id="svg1"
   xml:space="preserve"
   xmlns:inkscape="http://www.inkscape.org/namespaces/inkscape"
   xmlns:sodipodi="http://sodipodi.sourceforge.net/DTD/sodipodi-0.dtd"
   xmlns="http://www.w3.org/2000/svg"
   xmlns:svg="http://www.w3.org/2000/svg"><sodipodi:namedview
     id="namedview1"
     pagecolor="#ffffff"
     bordercolor="#999999"
     borderopacity="1"
     inkscape:showpageshadow="2"
     inkscape:pageopacity="0"
     inkscape:pagecheckerboard="0"
     inkscape:deskcolor="#d1d1d1"
     inkscape:document-units="mm"><inkscape:page
       x="1.5331293e-06"
       y="9.2210382e-07"
       width="57.111931"
       height="57.111759"
       id="page3"
       margin="0"
       bleed="0" /></sodipodi:namedview><defs
     id="defs1"><clipPath
       clipPathUnits="userSpaceOnUse"
       id="clipPath2-2"><path
         d="M 0,419.767 H 419.767 V 0 H 0 Z"
         transform="translate(-216.57481,-341.73621)"
         id="path2-4" /></clipPath><clipPath
       clipPathUnits="userSpaceOnUse"
       id="clipPath4-8"><path
         d="M 0,419.767 H 419.767 V 0 H 0 Z"
         transform="translate(-216.57481,-179.84461)"
         id="path4-3" /></clipPath><clipPath
       clipPathUnits="userSpaceOnUse"
       id="clipPath6-9"><path
         d="M 0,419.767 H 419.767 V 0 H 0 Z"
         transform="translate(-135.62901,-260.69131)"
         id="path6-0" /></clipPath><clipPath
       clipPathUnits="userSpaceOnUse"
       id="clipPath8-5"><path
         d="M 0,419.767 H 419.767 V 0 H 0 Z"
         transform="translate(-297.52111,-260.69131)"
         id="path8-2" /></clipPath><clipPath
       clipPathUnits="userSpaceOnUse"
       id="clipPath10-2"><path
         d="M 0,419.767 H 419.767 V 0 H 0 Z"
         transform="translate(-159.3361,-318.02921)"
         id="path10-7" /></clipPath><clipPath
       clipPathUnits="userSpaceOnUse"
       id="clipPath12-3"><path
         d="M 0,419.767 H 419.767 V 0 H 0 Z"
         transform="translate(-273.7438,-203.6219)"
         id="path12-7" /></clipPath><clipPath
       clipPathUnits="userSpaceOnUse"
       id="clipPath14-9"><path
         d="M 0,419.767 H 419.767 V 0 H 0 Z"
         transform="translate(-159.40641,-203.55161)"
         id="path14-0" /></clipPath><clipPath
       clipPathUnits="userSpaceOnUse"
       id="clipPath16-2"><path
         d="M 0,419.767 H 419.767 V 0 H 0 Z"
         transform="translate(-273.81411,-317.95891)"
         id="path16-3" /></clipPath><clipPath
       clipPathUnits="userSpaceOnUse"
       id="clipPath48-9"><path
         d="M 0,419.767 H 419.767 V 0 H 0 Z"
         transform="translate(-273.93621,-284.47451)"
         id="path48-9" /></clipPath><clipPath
       clipPathUnits="userSpaceOnUse"
       id="clipPath50-7"><path
         d="M 0,419.767 H 419.767 V 0 H 0 Z"
         transform="translate(-224.72721,-257.46671)"
         id="path50-0" /></clipPath><clipPath
       clipPathUnits="userSpaceOnUse"
       id="clipPath52-3"><path
         d="M 0,419.767 H 419.767 V 0 H 0 Z"
         transform="translate(-206.63691,-196.5448)"
         id="path52-9" /></clipPath><clipPath
       clipPathUnits="userSpaceOnUse"
       id="clipPath54-8"><path
         d="M 0,419.767 H 419.767 V 0 H 0 Z"
         transform="translate(-226.5133,-325.53601)"
         id="path54-6" /></clipPath></defs><g
     id="layer-MC0"
     inkscape:groupmode="layer"
     inkscape:label="Capa 1"
     transform="matrix(0.26458333,0,0,0.26458334,159.25135,-27.91004)"><g
       id="g2"
       transform="translate(-306.14174,-65.356099)"
       inkscape:export-filename="g2.svg"
       inkscape:export-xdpi="96"
       inkscape:export-ydpi="96"><path
         id="path1-7"
         d="M 0,0 C 0,0 -28.754,-14.787 -29.031,-43.793 -29.308,-72.799 0,-81.045 0,-81.045 c 0,0 29.309,8.246 29.031,37.252 C 28.755,-14.787 0,0 0,0"
         style="fill:#83cd28;fill-opacity:1;fill-rule:nonzero;stroke:none"
         transform="matrix(1.3333333,0,0,-1.3333333,-187.82541,170.84286)"
         clip-path="url(#clipPath2-2)" /><path
         id="path3-6"
         d="M 0,0 C 0,0 28.755,14.787 29.031,43.793 29.309,72.799 0,81.046 0,81.046 0,81.046 -29.308,72.799 -29.031,43.793 -28.754,14.787 0,0 0,0"
         style="fill:#83cd28;fill-opacity:1;fill-rule:nonzero;stroke:none"
         transform="matrix(1.3333333,0,0,-1.3333333,-187.82541,386.69832)"
         clip-path="url(#clipPath4-8)" /><path
         id="path5-2"
         d="M 0,0 C 0,0 14.787,-28.755 43.793,-29.032 72.799,-29.309 81.045,0 81.045,0 81.045,0 72.799,29.308 43.793,29.031 14.787,28.754 0,0 0,0"
         style="fill:#83cd28;fill-opacity:1;fill-rule:nonzero;stroke:none"
         transform="matrix(1.3333333,0,0,-1.3333333,-295.75313,278.90272)"
         clip-path="url(#clipPath6-9)" /><path
         id="path7-7"
         d="M 0,0 C 0,0 -14.787,28.754 -43.793,29.031 -72.799,29.308 -81.046,0 -81.046,0 c 0,0 8.247,-29.309 37.253,-29.032 C -14.787,-28.755 0,0 0,0"
         style="fill:#83cd28;fill-opacity:1;fill-rule:nonzero;stroke:none"
         transform="matrix(1.3333333,0,0,-1.3333333,-79.897005,278.90272)"
         clip-path="url(#clipPath8-5)" /><path
         id="path9-0"
         d="m 0,0 c 0,0 -9.871,-30.771 10.432,-51.464 20.303,-20.693 46.842,-5.81 46.842,-5.81 0,0 14.884,26.54 -5.81,46.842 C 30.771,9.871 0,0 0,0"
         style="fill:#60c332;fill-opacity:1;fill-rule:nonzero;stroke:none"
         transform="matrix(1.3333333,0,0,-1.3333333,-264.14368,202.45219)"
         clip-path="url(#clipPath10-2)" /><path
         id="path11-3"
         d="m 0,0 c 0,0 9.871,30.771 -10.432,51.464 -20.302,20.694 -46.842,5.81 -46.842,5.81 0,0 -14.884,-26.54 5.81,-46.842 C -30.77,-9.871 0,0 0,0"
         style="fill:#60c332;fill-opacity:1;fill-rule:nonzero;stroke:none"
         transform="matrix(1.3333333,0,0,-1.3333333,-111.60007,354.99526)"
         clip-path="url(#clipPath12-3)" /><path
         id="path13-9"
         d="m 0,0 c 0,0 30.771,-9.871 51.464,10.432 20.694,20.302 5.81,46.842 5.81,46.842 0,0 -26.539,14.883 -46.842,-5.81 C -9.871,30.771 0,0 0,0"
         style="fill:#60c332;fill-opacity:1;fill-rule:nonzero;stroke:none"
         transform="matrix(1.3333333,0,0,-1.3333333,-264.04994,355.08899)"
         clip-path="url(#clipPath14-9)" /><path
         id="path15-9"
         d="m 0,0 c 0,0 -30.77,9.871 -51.464,-10.432 -20.694,-20.302 -5.81,-46.842 -5.81,-46.842 0,0 26.54,-14.883 46.842,5.81 C 9.871,-30.771 0,0 0,0"
         style="fill:#60c332;fill-opacity:1;fill-rule:nonzero;stroke:none"
         transform="matrix(1.3333333,0,0,-1.3333333,-111.50633,202.54592)"
         clip-path="url(#clipPath16-2)" /><path
         id="path47-9"
         d="m 0,0 c -5.717,3.059 -12.452,5.183 -20.217,5.257 -3.312,0.031 -6.341,-0.338 -9.13,-0.99 0.664,2.811 1.04,5.867 1.008,9.212 -0.074,7.741 -2.185,14.458 -5.228,20.164 -6.209,-1.878 -12.481,-5.138 -18.029,-10.581 -2.362,-2.319 -4.242,-4.72 -5.752,-7.152 -1.517,2.456 -3.412,4.881 -5.797,7.222 -5.538,5.433 -11.797,8.692 -17.996,10.571 -3.06,-5.718 -5.187,-12.456 -5.261,-20.224 -0.032,-3.345 0.344,-6.401 1.008,-9.212 -2.789,0.652 -5.817,1.021 -9.129,0.99 -7.757,-0.074 -14.487,-2.194 -20.199,-5.247 1.883,-6.17 5.136,-12.398 10.545,-17.91 2.341,-2.386 4.765,-4.28 7.222,-5.797 -2.432,-1.511 -4.834,-3.39 -7.152,-5.752 -5.468,-5.573 -8.734,-11.877 -10.607,-18.114 5.711,-3.051 12.438,-5.169 20.191,-5.243 3.294,-0.031 6.306,0.334 9.083,0.98 -0.634,-2.755 -0.993,-5.74 -0.962,-9.002 0.074,-7.777 2.205,-14.522 5.271,-20.243 6.218,1.876 12.5,5.138 18.056,10.59 2.35,2.304 4.221,4.692 5.727,7.111 1.499,-2.395 3.355,-4.759 5.682,-7.041 5.565,-5.461 11.86,-8.726 18.089,-10.6 3.048,5.709 5.164,12.434 5.238,20.183 0.031,3.262 -0.328,6.247 -0.962,9.002 2.778,-0.646 5.79,-1.011 9.084,-0.98 7.761,0.075 14.494,2.197 20.209,5.252 -1.87,6.257 -5.14,12.583 -10.626,18.175 -2.283,2.327 -4.646,4.183 -7.041,5.682 2.419,1.506 4.806,3.377 7.112,5.726 C -5.137,-12.44 -1.88,-6.19 0,0"
         style="fill:#328036;fill-opacity:1;fill-rule:nonzero;stroke:none"
         transform="matrix(1.3333333,0,0,-1.3333333,-111.34353,247.19179)"
         clip-path="url(#clipPath48-9)" /><path
         id="path49-1"
         d="M 0,0 C -0.12,0.036 -0.229,0.072 -0.346,0.107 -0.338,0.129 -0.331,0.15 -0.323,0.171 -0.214,0.112 -0.11,0.062 0,0 7.814,-2.292 20.031,-3.808 31.516,3.359 19.848,10.68 7.416,9.013 -0.397,6.663 -0.4,6.67 -0.404,6.677 -0.407,6.684 6.744,10.518 16.667,18.077 19.813,31.394 6.438,28.266 -1.14,18.312 -4.979,11.146 c -0.016,0.006 -0.034,0.011 -0.05,0.018 2.353,7.765 4.06,20.161 -3.159,31.827 -7.26,-11.672 -5.564,-24.09 -3.21,-31.873 -0.007,-0.002 -0.014,-0.004 -0.021,-0.007 -3.834,7.169 -11.419,17.151 -24.813,20.283 3.161,-13.379 13.156,-20.939 20.314,-24.755 -0.011,-0.024 -0.02,-0.047 -0.03,-0.071 -7.782,2.355 -20.198,4.054 -31.871,-3.209 11.585,-7.169 23.898,-5.536 31.673,-3.208 0.049,0.028 0.095,0.049 0.145,0.076 0.003,-0.009 0.005,-0.018 0.009,-0.027 -0.053,-0.015 -0.101,-0.032 -0.154,-0.049 -7.178,-3.877 -17.062,-11.492 -20.133,-24.85 13.234,3.075 20.816,12.842 24.705,19.995 0.027,0.095 0.056,0.18 0.084,0.272 0.016,-0.006 0.031,-0.015 0.047,-0.022 -0.046,-0.085 -0.085,-0.165 -0.131,-0.25 -2.306,-7.828 -3.848,-20.109 3.386,-31.64 7.23,11.584 5.625,23.915 3.299,31.719 -0.024,0.046 -0.045,0.089 -0.069,0.135 0.008,0.003 0.017,0.006 0.024,0.009 0.016,-0.049 0.031,-0.094 0.045,-0.144 C -1.013,-11.784 6.577,-21.612 19.86,-24.699 16.827,-11.508 7.154,-3.921 0,0"
         style="fill:#24662f;fill-opacity:1;fill-rule:nonzero;stroke:none"
         transform="matrix(1.3333333,0,0,-1.3333333,-176.95554,283.20219)"
         clip-path="url(#clipPath50-7)" /><path
         id="path51-7"
         d="M 0,0 C -0.886,0 -1.763,0.438 -2.287,1.144 -2.795,1.826 -2.932,2.679 -2.672,3.542 L 12.044,52.46 c 0.155,0.516 0.066,1.061 -0.245,1.498 -0.313,0.441 -0.804,0.709 -1.345,0.731 h -31.919 c -1.002,0 -1.894,0.522 -2.387,1.395 -0.492,0.874 -0.476,1.907 0.044,2.765 l 41.39,68.308 c 0.513,0.848 1.349,1.334 2.294,1.334 0.887,0 1.763,-0.438 2.288,-1.143 0.507,-0.683 0.644,-1.535 0.383,-2.4 L 7.832,76.032 C 7.677,75.517 7.766,74.971 8.077,74.533 8.391,74.092 8.881,73.824 9.423,73.802 h 31.918 c 1.003,0 1.896,-0.522 2.388,-1.395 0.491,-0.874 0.476,-1.907 -0.044,-2.764 L 2.295,1.334 C 1.782,0.486 0.945,0 0,0"
         style="fill:#5cc233;fill-opacity:1;fill-rule:nonzero;stroke:none"
         transform="matrix(1.3333333,0,0,-1.3333333,-201.07594,364.43139)"
         clip-path="url(#clipPath52-3)" /><path
         id="path53-2"
         d="m 0,0 v -1 1 c -1.124,0 -2.117,-0.574 -2.723,-1.574 l -41.389,-68.309 c -0.615,-1.014 -0.634,-2.236 -0.052,-3.269 0.582,-1.034 1.637,-1.65 2.823,-1.65 h 29.233 2.707 c 0.342,-0.015 0.693,-0.206 0.917,-0.52 0.22,-0.311 0.283,-0.699 0.173,-1.065 l -14.716,-48.918 c -0.306,-1.019 -0.142,-2.028 0.463,-2.841 0.626,-0.842 1.63,-1.345 2.688,-1.345 1.124,0 2.116,0.573 2.723,1.574 l 41.389,68.309 c 0.615,1.014 0.633,2.236 0.052,3.269 -0.582,1.033 -1.638,1.65 -2.823,1.65 h -29.234 -2.706 c -0.342,0.015 -0.693,0.206 -0.917,0.521 -0.22,0.311 -0.284,0.698 -0.173,1.064 L 3.15,-4.187 c 0.307,1.02 0.143,2.029 -0.462,2.842 C 2.063,-0.503 1.058,0 0,0 m 0,-1 c 1.357,0 2.693,-1.235 2.192,-2.898 l -14.715,-48.918 c -0.423,-1.405 0.6,-2.811 2.048,-2.873 h 2.706 29.234 c 1.745,0 2.82,-1.908 1.916,-3.401 l -41.39,-68.308 c -0.463,-0.766 -1.168,-1.093 -1.867,-1.093 -1.358,0 -2.693,1.235 -2.193,2.898 l 14.715,48.917 c 0.423,1.406 -0.599,2.812 -2.047,2.874 h -2.707 -29.233 c -1.745,0 -2.82,1.907 -1.916,3.401 l 41.39,68.309 C -1.404,-1.327 -0.699,-1 0,-1"
         style="fill:#ffffff;fill-opacity:1;fill-rule:nonzero;stroke:none"
         transform="matrix(1.3333333,0,0,-1.3333333,-174.57408,192.44312)"
         clip-path="url(#clipPath54-8)" /></g></g></svg>
